<?xml version="1.0" standalone="no"?><!DOCTYPE svg PUBLIC "-//W3C//DTD SVG 1.1//EN" "http://www.w3.org/Graphics/SVG/1.1/DTD/svg11.dtd"><svg t="1599715909042" class="icon" viewBox="0 0 1024 1024" version="1.1" xmlns="http://www.w3.org/2000/svg" p-id="11933" xmlns:xlink="http://www.w3.org/1999/xlink" width="128" height="128"><defs><style type="text/css"></style></defs><path d="M924.9 581.8h-83.5V538l7.4-0.3 40.3 0.1c13.7 0 27.4-0.1 40.9-0.6 10.3-0.5 19.4-5.5 24.8-13.8 5.6-8.4 6.6-18.9 3-28.7-4.7-12.4-16-19.8-30.2-19.8h-86.2v-44.1l58.3 0.2c8.6 0 17.2-0.1 25.7-0.2 20 0 34.5-13.2 34.5-31.4 0-18.8-14-31.4-34.9-31.4h-83.8c-6.3-59.5-24.7-101.8-57.8-133-32.1-30.6-73.1-44.9-128.9-44.9-3 0-5.9 0-8.9 0.1 0-0.9-0.4-7.3-0.4-7.3V105c0-25.5-4.7-32.4-29.1-41.2l-5.3 0.2c-23.3 8.5-28.3 15.8-28.3 40.9v84.4h-44.2v-84.4c0-25-5.3-32.5-29.6-40.7l-5.3 0.2c-22.9 8.6-27.8 15.9-27.8 40.9V190h-43.8l-0.3-6v-78c0-25.7-5.6-33.4-29.8-41h-4c-24.5 7.7-29.8 15-29.8 41.4v84.2c-54.7 3.5-97.5 19.8-130.6 49.7-34.3 31.1-51.1 72-52.8 128.6h-78.3c-25.9 0-32.9 5-41.4 29.7v4.2c8.2 23.7 15.5 28.8 40.9 28.8H177s6.1 0.3 6.9 0.3v43.8h-78.2c-25.9 0-32.8 5-41.4 29.7v4.2c8.1 23.3 15.3 28.4 40.5 28.4h78.6v44.1h-78.2c-25.1 0-32.3 5-41.1 29.2l0.2 5.3C72.7 640 80 645 105.1 645h79.6v17.2c0.4 38.5 10.3 74.1 29.4 105.7 30 49.6 76.1 75.4 141 78.8l7.3 0.4 5.7-2.4 0.1 55.3c0.1 7 0.2 14.1-0.1 21.1-1 18.9 7.1 31.8 25.5 38.7l15.5-0.4c15.6-7.6 22.7-20.4 22.1-40.5-1-17.8-0.8-35.5-0.6-53.6l0.1-18.1H475v32c0.1 13.1 0.2 26.3-0.5 39.3-1 19.6 6.2 32.8 23.8 40.9l17.2-0.4c15.9-7.7 23.2-21 22.1-40.5-0.9-17.4-0.7-34.9-0.6-52.9l0.1-18.4h44.2l0.2 40.9c0.2 10.3 0.4 20.6-0.2 30.8-1.5 19.4 5.7 32.7 23.8 41h14.4l0.6-0.2c16.9-5.9 24.8-18.5 24.3-38.3-0.3-17.1-0.2-34-0.1-51.3l0.1-22.9c62.6-1.2 110.8-18.8 147.2-54 44.3-43.3 49.6-99.1 48.4-148.5h84.8c20.6 0 34.9-12.9 34.9-31.4 0.2-18.6-14.2-31.5-34.8-31.5zM254 693.4c-2.6-12.5-3.9-25.4-3.9-38.5-0.4-92.5-0.4-185.5 0-278.5 0-15.2 1.6-28.6 4.7-40.9 10.5-40.1 38.6-64.4 85.7-74.4 12.9-2.6 26.2-3.9 39.4-3.9a31510.68 31510.68 0 0 1 275 0c16.4 0 29.1 1.4 40.1 4.3 40 9.8 65.5 38.1 75.7 83.9 2.6 12.5 3.9 25.1 3.9 37.6v282.5c0 44.7-14.3 74.7-45 94.7-22.3 14.2-48.5 21.4-77.8 21.4H506.5l-137.1 0.4c-16.9 0-31.2-1.7-43.5-5.1-38.3-10.9-61.8-38.3-71.9-83.5z" fill="#ffffff" p-id="11934"></path><path d="M380.8 426.8c-27.1 0-49.6 8.9-66.7 26.4-17.2 17.5-25.9 40.2-25.9 67.5 0 26 7.8 47.2 23.3 63 15.5 15.8 36.6 23.8 62.7 23.8 20.1 0 36.7-3.2 49.3-9.4l2.1-1v-41.7l-5.7 3.3c-11.6 6.8-24.7 10.3-38.8 10.3-14.9 0-26.3-4.5-35-13.8-8.6-9.3-13-21.8-13-37.1 0-15.8 4.6-28.7 13.7-38.4s21.1-14.5 36.5-14.5c13.6 0 25.9 3.2 36.5 9.4l5.7 3.3v-43.6l-2.4-0.9c-11.3-4.3-25.6-6.6-42.3-6.6zM509.1 429.7h-61.4v175h43.2v-58.4h16.9c18.6 0 34.6-5.3 47.3-15.7 13.4-11 20.2-25.9 20.2-44.1 0-37.7-22.3-56.8-66.2-56.8z m-18.2 35.2h12c18.7 0 27.4 7.3 27.4 22.9 0 16.1-8.8 23.6-27.7 23.6h-11.7v-46.5zM692.6 428.2v102.9c0 24.9-9.1 36.5-28.7 36.5-12.5 0-29.2-3.9-29.2-38.1V428.2h-43.3v101.1c0 50.9 23.9 76.7 71 76.7 48.7 0 73.4-26.5 73.4-78.7v-99.2h-43.2z" fill="#ffffff" p-id="11935"></path></svg>