<?xml version="1.0" standalone="no"?><!DOCTYPE svg PUBLIC "-//W3C//DTD SVG 1.1//EN" "http://www.w3.org/Graphics/SVG/1.1/DTD/svg11.dtd"><svg t="1599716027120" class="icon" viewBox="0 0 1024 1024" version="1.1" xmlns="http://www.w3.org/2000/svg" p-id="18081" xmlns:xlink="http://www.w3.org/1999/xlink" width="128" height="128"><defs><style type="text/css"></style></defs><path d="M587.350081 507.308033v-335.592797A179.19389 179.19389 0 0 0 401.824252 0.119674a178.560696 178.560696 0 0 0-182.35986 171.595562v335.592797a275.439371 275.439371 0 0 0-56.987456 400.811774A307.099069 307.099069 0 0 0 360.666644 1020.828331a328.627663 328.627663 0 0 0 43.057189 3.16597 308.365457 308.365457 0 0 0 180.460278-56.987456 276.072565 276.072565 0 0 0 63.319396-400.811774 303.933099 303.933099 0 0 0-60.153426-58.887038z m18.362625 337.492379a241.880091 241.880091 0 0 1-319.762948 81.048826 214.652751 214.652751 0 0 1-85.481185-301.400323 233.64857 233.64857 0 0 1 85.481185-81.048827V171.715236A112.708524 112.708524 0 0 1 403.090639 63.439069a111.442136 111.442136 0 0 1 114.608107 108.276167v371.051658a214.019557 214.019557 0 0 1 88.01396 302.033518zM701.958187 193.877024h238.714122a32.926086 32.926086 0 0 0 33.559279-31.659697 32.292892 32.292892 0 0 0-33.559279-31.659698H701.958187a32.926086 32.926086 0 0 0-32.926086 31.026504 33.55928 33.55928 0 0 0 32.926086 32.292891z m238.714122 228.583019H701.958187a31.659698 31.659698 0 1 0 0 63.319395h238.714122a32.292892 32.292892 0 0 0 33.559279-31.659698 32.292892 32.292892 0 0 0-34.192473-31.659697z m0-141.202253H701.958187a31.659698 31.659698 0 0 0-32.292892 30.39331 32.292892 32.292892 0 0 0 32.292892 32.292892h238.714122a32.926086 32.926086 0 0 0 33.559279-31.659698 31.659698 31.659698 0 0 0-34.192473-31.026504z m-497.69045 372.951241V225.536722a37.991637 37.991637 0 0 0-39.258026-36.725249 37.358443 37.358443 0 0 0-38.624831 36.725249v428.672309a94.979093 94.979093 0 0 0-63.319396 87.380766 97.511869 97.511869 0 0 0 100.67784 94.979093 97.511869 97.511869 0 0 0 100.677839-94.979093 94.3459 94.3459 0 0 0-60.153426-87.380766z" p-id="18082" fill="#ffffff"></path></svg>