<?xml version="1.0" standalone="no"?><!DOCTYPE svg PUBLIC "-//W3C//DTD SVG 1.1//EN" "http://www.w3.org/Graphics/SVG/1.1/DTD/svg11.dtd"><svg t="1599716100963" class="icon" viewBox="0 0 1025 1024" version="1.1" xmlns="http://www.w3.org/2000/svg" p-id="21040" xmlns:xlink="http://www.w3.org/1999/xlink" width="128.125" height="128"><defs><style type="text/css"></style></defs><path d="M1025.93536 703.61088v127.92064c0 70.64832-57.27232 127.9232-127.9232 127.9232H130.4832c-70.65088 0-127.9232-57.27488-127.9232-127.9232v-191.88224L130.4832 64h767.53152l127.92064 575.64928v63.9616zM194.44224 895.49312h639.61088c70.67648 0 127.9232 6.71488 127.9232-63.9616v-127.9232H66.51904v127.9232c0 70.67648 57.56416 63.9616 127.9232 63.9616zM834.05312 127.9616H194.44224l-127.9232 511.68768h895.45472l-127.9232-511.68768zM450.28608 895.49312H386.3296v-127.9232h63.95904v127.9232z m127.9232 0h-63.9616v-127.9232h63.9616v127.9232z m127.9232 0h-63.9616v-127.9232h63.95904v127.9232z m127.92064 0h-63.9616v-127.9232h63.9616v127.9232z" p-id="21041" fill="#ffffff"></path></svg>