<?xml version="1.0" standalone="no"?><!DOCTYPE svg PUBLIC "-//W3C//DTD SVG 1.1//EN" "http://www.w3.org/Graphics/SVG/1.1/DTD/svg11.dtd"><svg t="1599716000187" class="icon" viewBox="0 0 1024 1024" version="1.1" xmlns="http://www.w3.org/2000/svg" p-id="17278" xmlns:xlink="http://www.w3.org/1999/xlink" width="128" height="128"><defs><style type="text/css"></style></defs><path d="M936.83223213 537.02642217h-83.34428291v100.41417861h83.34428291a25.11639844 25.11639844 0 0 1 0 50.20708974h-83.34428291v95.375475a70.28478369 70.28478369 0 0 1-70.2847837 70.31049171h-95.401183v83.3442829a25.11639844 25.11639844 0 0 1-50.20708887 0v-83.3442829h-100.41417949v83.3442829a25.11639844 25.11639844 0 0 1-50.23279775 0v-83.3442829h-100.41417862v83.3442829a25.11639844 25.11639844 0 0 1-50.20708974 0v-83.3442829h-95.375475a70.28478369 70.28478369 0 0 1-70.3104917-70.28478369v-95.40118302H87.29639844a25.11639844 25.11639844 0 0 1 0-50.20708974h83.34428291v-100.41417861H87.29639844a25.11639844 25.11639844 0 0 1 0-50.23279775h83.34428291v-100.4141795H87.29639844a25.11639844 25.11639844 0 0 1 0-50.20708886h83.34428291v-95.375475a70.28478369 70.28478369 0 0 1 70.28478368-70.31049171h95.40118302V87.14210644a25.11639844 25.11639844 0 0 1 50.20708974 1e-8v83.3442829h100.41417862V87.14210644a25.11639844 25.11639844 0 0 1 50.23279775 1e-8v83.3442829h100.41417949V87.14210644a25.11639844 25.11639844 0 0 1 50.20708887 1e-8v83.3442829h95.375475a70.28478369 70.28478369 0 0 1 70.3104917 70.2847837v95.40118301h83.34428291a25.11639844 25.11639844 0 0 1 0 50.20708886h-83.34428291v100.41417949h83.34428291a25.11639844 25.11639844 0 0 1 0 50.23279776z m-133.55137266 246.02245137V240.77117305c0-11.0543001-8.99768672-20.07769395-20.07769395-20.07769395H240.92546504c-11.0543001 0-20.07769395 8.99768672-20.07769395 20.07769395v542.27770049c0 11.0543001 8.99768672 20.07769395 20.07769395 20.07769394h542.27770048c11.0543001 0 20.07769395-8.99768672 20.07769395-20.07769394zM500.85576933 353.85923604c37.84169795 0 67.45693974 8.48353271 88.84572539 25.50201415 21.10600107 16.4529123 34.26833057 41.00374161 39.48698848 73.62678165h-45.24550839c-4.11322763-19.74349424-13.1623295-34.55111513-27.14730469-44.4228627-13.70219063-10.15453213-32.36596347-15.21894375-55.93990078-15.21894375-28.53551953 0-51.15827373 9.74320927-67.8682626 29.20391895-17.81541914 20.30906338-26.73598184 48.66462949-26.73598184 85.14381972 0 35.65654541 8.09791787 62.8038501 24.26804473 81.44191495 17.275558 20.56613994 44.29432441 30.84921035 81.03059209 30.84921034 13.44511406 0 26.99305928-1.79953769 40.72095791-5.34719618a116.7128455 116.7128455 0 0 0 32.90582373-14.39629805v-63.75503408h-81.03059209v-38.25302081h125.86477764v123.39684053c-14.80762089 11.79982266-32.49450175 20.97746279-53.0606417 27.55862754-21.38878565 6.58116474-44.83418555 9.87174756-70.33619883 9.87174756-46.60801523 0-82.95866807-14.80762089-109.00054249-44.42286269-24.13950732-27.43008926-36.19640654-63.06092753-36.19640654-106.94392911 0-44.14007812 12.08260723-80.33648467 36.19640654-108.58921963 25.21922959-30.15510293 59.64180645-45.2455084 103.24202344-45.24550839z" p-id="17279" fill="#ffffff"></path></svg>