<?xml version="1.0" standalone="no"?><!DOCTYPE svg PUBLIC "-//W3C//DTD SVG 1.1//EN" "http://www.w3.org/Graphics/SVG/1.1/DTD/svg11.dtd"><svg t="1599623706699" class="icon" viewBox="0 0 1024 1024" version="1.1" xmlns="http://www.w3.org/2000/svg" p-id="14440" xmlns:xlink="http://www.w3.org/1999/xlink" width="128" height="128"><defs><style type="text/css"></style></defs><path d="M512 996c-64.8 0-128.8-12.8-188-38.4-57.6-24.8-109.6-60-153.6-104s-80-96.8-104-153.6C40.8 640.8 28 576.8 28 512c0-80.8 23.2-167.2 64.8-242.4 4.8-7.2 14.4-12.8 22.4-12.8 2.4 0 4.8 0.8 7.2 1.6 9.6 7.2 14.4 20.8 7.2 32.8v1.6C92 364 72.8 437.6 72.8 512c0 242.4 196.8 439.2 439.2 439.2 242.4 0 439.2-196.8 439.2-439.2 0-242.4-196.8-439.2-439.2-439.2-74.4 0-148 19.2-219.2 56.8h-1.6c-4 2.4-9.6 4-14.4 4-6.4 0-12.8-3.2-16.8-8.8-4-10.4-3.2-25.6 8.8-32.8 76-41.6 162.4-64 243.2-64 64.8 0 128.8 12.8 188 38.4 57.6 24.8 109.6 60 153.6 104s80 96.8 104 153.6c25.6 60 38.4 123.2 38.4 188s-12.8 128-38.4 188c-24.8 57.6-60 109.6-104 153.6s-96.8 80-153.6 104c-59.2 25.6-123.2 38.4-188 38.4z" p-id="14441" fill="#ffffff"></path><path d="M524 210.4L512 192.8l-12 17.6C492 222.4 304 505.6 304 644.8c-0.8 116 92 211.2 208 212.8 116-1.6 208.8-96.8 208-212 0-140-188-423.2-196-435.2z m-16 617.6c-99.2-1.6-177.6-84-176-182.4 0-111.2 137.6-335.2 179.2-400 41.6 65.6 179.2 288.8 179.2 400v7.2c-1.6 98.4-83.2 176.8-182.4 175.2z m-4.8-198.4c-46.4 23.2-100.8 23.2-147.2-0.8-1.6 34.4 7.2 68 24.8 96.8 28 48 79.2 77.6 135.2 79.2h0.8c48-2.4 92-26.4 120.8-65.6 7.2-11.2 13.6-22.4 19.2-33.6 13.6-31.2 16-65.6 7.2-98.4-55.2-12-112-4-160.8 22.4zM700.8 381.6c-28.8 0-52-24-52-52.8 0-35.2 47.2-105.6 48.8-108.8l3.2-4.8 3.2 4.8c1.6 3.2 48.8 73.6 48.8 108.8 0 28-23.2 52-52 52.8z" p-id="14442" fill="#ffffff"></path></svg>