<?xml version="1.0" standalone="no"?><!DOCTYPE svg PUBLIC "-//W3C//DTD SVG 1.1//EN" "http://www.w3.org/Graphics/SVG/1.1/DTD/svg11.dtd"><svg t="1599716133539" class="icon" viewBox="0 0 1024 1024" version="1.1" xmlns="http://www.w3.org/2000/svg" p-id="22534" xmlns:xlink="http://www.w3.org/1999/xlink" width="128" height="128"><defs><style type="text/css"></style></defs><path d="M557.93375205 173.15254402v97.51739502h-97.51739501v-97.51739502h97.51739501M606.69013214 124.39384651h-195.03092765v195.03092766h195.03092764v-195.03092766z" p-id="22535" fill="#ffffff"></path><path d="M850.47975731 758.24764443v97.51739501h-97.51739503v-97.51739501h97.51739503M557.93375205 758.24764443v97.51739501h-97.51739501v-97.51739501h97.51739501M265.38542938 758.24764443v97.51739501h-97.51739502v-97.51739501h97.51739501M533.55363083 319.42554665h-48.75638008v146.27454757h-292.54677773v243.79117013h-73.13727379v195.03092765h195.03092767v-195.03092766h-73.1372738v-195.03092766h243.79117012v195.03092766h-73.13727378v195.03092766h195.03092766v-195.03092766h-73.1372738v-195.03092766h243.79117013v195.03092766h-73.13727379v195.03092766h195.03092765v-195.03092766h-73.13727378v-243.79117012h-292.54677773v-146.27454757z" p-id="22536" fill="#ffffff"></path></svg>