<?xml version="1.0" standalone="no"?><!DOCTYPE svg PUBLIC "-//W3C//DTD SVG 1.1//EN" "http://www.w3.org/Graphics/SVG/1.1/DTD/svg11.dtd"><svg t="1599550412043" class="icon" viewBox="0 0 1024 1024" version="1.1" xmlns="http://www.w3.org/2000/svg" p-id="3168" width="128" height="128" xmlns:xlink="http://www.w3.org/1999/xlink"><defs><style type="text/css"></style></defs><path d="M512 996.16768a479.0272 479.0272 0 0 1-187.92448-38.17472 485.21216 485.21216 0 0 1-153.98912-104.09984 484.92544 484.92544 0 0 1-104.05888-153.94816A478.4128 478.4128 0 0 1 27.8528 512c0-81.05984 22.89664-167.0144 64.512-242.03264 4.62848-7.4752 14.15168-12.9024 22.69184-12.9024a12.6976 12.6976 0 0 1 7.2704 1.98656c9.23648 6.92224 14.56128 21.13536 7.51616 32.91136l-0.24576 0.43008-0.24576 0.43008C91.60704 363.60192 72.45824 437.3504 72.45824 512c0 242.33984 197.18144 439.52128 439.54176 439.52128 242.3808 0 439.54176-197.18144 439.54176-439.52128 0-242.36032-197.16096-439.54176-439.54176-439.54176-74.6496 0-148.39808 19.1488-219.19744 56.89344l-0.43008 0.24576-0.43008 0.24576a28.20096 28.20096 0 0 1-14.39744 4.28032 19.37408 19.37408 0 0 1-16.5888-8.84736c-3.70688-10.58816-3.50208-25.23136 8.99072-32.91136C344.9856 50.76992 430.94016 27.8528 512 27.8528c64.57344-0.1024 128.512 12.9024 187.94496 38.1952a484.72064 484.72064 0 0 1 153.96864 104.0384 484.7616 484.7616 0 0 1 104.05888 153.98912c25.33376 59.65824 38.17472 122.88 38.17472 187.92448 0 65.06496-12.84096 128.3072-38.17472 187.94496a484.43392 484.43392 0 0 1-104.05888 153.98912 485.23264 485.23264 0 0 1-153.96864 104.05888A479.1296 479.1296 0 0 1 512 996.16768z" p-id="3169" fill="#ffffff"></path><path d="M534.03648 589.16864l-6.51264-2.9696V339.84512c0-10.30144-12.98432-19.02592-28.32384-19.02592-15.38048 0-28.38528 8.704-28.38528 19.02592v246.39488l-6.5536 2.92864a87.57248 87.57248 0 0 0-51.38432 79.93344c0 48.16896 38.72768 87.36768 86.26176 87.36768 47.57504 0 86.28224-39.19872 86.28224-87.36768a87.30624 87.30624 0 0 0-51.38432-79.93344z m88.41216-52.44928l-3.42016-3.31776v-265.0112c0-25.92768-13.35296-51.05664-36.59776-68.89472-22.4256-17.18272-51.97824-26.624-83.27168-26.624-31.27296 0-60.84608 9.4208-83.21024 26.624-23.26528 17.83808-36.59776 42.96704-36.59776 68.89472v265.05216l-3.44064 3.31776a183.76704 183.76704 0 0 0-56.36096 132.38272c0 48.57856 18.69824 94.28992 52.6336 128.63488a177.23392 177.23392 0 0 0 127.05792 53.30944 177.2544 177.2544 0 0 0 127.03744-53.30944 181.90336 181.90336 0 0 0 52.61312-128.63488 184.03328 184.03328 0 0 0-56.44288-132.42368z m-123.2896 284.63104c-82.92352 0-150.36416-68.3008-150.36416-152.2688 0-45.50656 19.84512-88.30976 54.51776-117.32992l5.28384-4.46464V268.3904c0-17.89952 10.36288-35.24608 28.44672-47.67744 17.01888-11.71456 39.09632-18.16576 62.11584-18.16576 23.04 0 45.13792 6.43072 62.13632 18.16576 18.08384 12.3904 28.44672 29.7984 28.44672 47.67744v278.91712l5.28384 4.46464a152.65792 152.65792 0 0 1 54.51776 117.32992c-0.02048 83.968-67.4816 152.24832-150.38464 152.24832z m154.43968-533.77024h39.40352c6.36928 0 11.4688-4.21888 11.4688-9.44128s-5.14048-9.44128-11.4688-9.44128h-39.40352c-6.36928 0-11.44832 4.21888-11.44832 9.44128s5.12 9.44128 11.44832 9.44128z m39.40352 22.24128h-39.40352c-6.36928 0-11.44832 4.21888-11.44832 9.44128s5.12 9.44128 11.44832 9.44128h39.40352c6.36928 0 11.4688-4.21888 11.4688-9.44128 0.04096-5.2224-5.12-9.44128-11.4688-9.44128z m0 41.0624h-39.40352c-6.36928 0-11.44832 4.23936-11.44832 9.44128 0 5.2224 5.12 9.44128 11.44832 9.44128h39.40352c6.36928 0 11.4688-4.21888 11.4688-9.44128 0.04096-5.20192-5.12-9.44128-11.4688-9.44128z m0 41.08288h-39.40352c-6.36928 0-11.44832 4.21888-11.44832 9.44128 0 5.20192 5.12 9.44128 11.44832 9.44128h39.40352c6.36928 0 11.4688-4.21888 11.4688-9.44128 0.04096-5.26336-5.12-9.44128-11.4688-9.44128z m0 41.04192h-39.40352c-6.36928 0-11.44832 4.21888-11.44832 9.4208 0 5.2224 5.12 9.44128 11.44832 9.44128h39.40352c6.36928 0 11.4688-4.21888 11.4688-9.44128 0.04096-5.20192-5.12-9.4208-11.4688-9.4208z m0 41.0624h-39.40352c-6.36928 0-11.44832 4.21888-11.44832 9.44128s5.12 9.44128 11.44832 9.44128h39.40352c6.36928 0 11.4688-4.21888 11.4688-9.44128 0.04096-5.2224-5.12-9.44128-11.4688-9.44128z" p-id="3170" fill="#ffffff"></path></svg>