<?xml version="1.0" standalone="no"?><!DOCTYPE svg PUBLIC "-//W3C//DTD SVG 1.1//EN" "http://www.w3.org/Graphics/SVG/1.1/DTD/svg11.dtd"><svg t="1599626390391" class="icon" viewBox="0 0 1024 1024" version="1.1" xmlns="http://www.w3.org/2000/svg" p-id="16489" xmlns:xlink="http://www.w3.org/1999/xlink" width="128" height="128"><defs><style type="text/css"></style></defs><path d="M475.2 483.2H544V552h-68.8z" p-id="16490" fill="#ffffff"></path><path d="M648 688c-3.2 0-6.4 0-8-1.6-17.6-4.8-27.2-22.4-22.4-40L704 324.8l-321.6 86.4c-17.6 4.8-35.2-6.4-40-22.4-4.8-17.6 6.4-35.2 22.4-40l376-100.8c11.2-3.2 24 0 32 8s11.2 20.8 8 32L680 664c-4.8 14.4-17.6 24-32 24z" p-id="16491" fill="#ffffff"></path><path d="M272 788.8c-8 0-17.6-3.2-22.4-9.6-8-8-11.2-20.8-8-32l100.8-376c4.8-17.6 22.4-27.2 40-22.4 17.6 4.8 27.2 22.4 22.4 40l-86.4 321.6 320-86.4c17.6-4.8 35.2 6.4 40 22.4 4.8 17.6-6.4 35.2-22.4 40L280 787.2c-3.2 1.6-6.4 1.6-8 1.6z" p-id="16492" fill="#ffffff"></path><path d="M512 1024c-68.8 0-136-14.4-198.4-40-60.8-25.6-115.2-62.4-163.2-110.4C104 827.2 65.6 771.2 40 710.4 14.4 648 0 580.8 0 512c0-86.4 24-176 68.8-256 4.8-8 14.4-14.4 24-14.4 1.6 0 4.8 0 8 1.6 9.6 8 16 22.4 8 35.2C67.2 355.2 48 433.6 48 512c0 256 208 464 464 464s464-208 464-464S768 48 512 48c-78.4 0-156.8 20.8-232 60.8-4.8 3.2-9.6 4.8-16 4.8-8 0-12.8-3.2-17.6-9.6-3.2-11.2-3.2-27.2 9.6-35.2C336 24 425.6 0 512 0c68.8 0 136 14.4 198.4 40 60.8 25.6 115.2 62.4 163.2 110.4C920 196.8 958.4 252.8 984 313.6c25.6 62.4 40 129.6 40 198.4s-12.8 136-40 198.4c-25.6 60.8-62.4 115.2-110.4 163.2C827.2 920 771.2 958.4 710.4 984c-62.4 25.6-129.6 40-198.4 40z" p-id="16493" fill="#ffffff"></path></svg>