<?xml version="1.0" standalone="no"?><!DOCTYPE svg PUBLIC "-//W3C//DTD SVG 1.1//EN" "http://www.w3.org/Graphics/SVG/1.1/DTD/svg11.dtd"><svg t="1599623559313" class="icon" viewBox="0 0 1024 1024" version="1.1" xmlns="http://www.w3.org/2000/svg" p-id="10144" xmlns:xlink="http://www.w3.org/1999/xlink" width="128" height="128"><defs><style type="text/css"></style></defs><path d="M729.6 288h-432c-14.4 0-27.2 12.8-27.2 27.2v486.4c0 14.4 12.8 27.2 27.2 27.2s27.2-12.8 27.2-27.2V585.6h404.8c44.8 0 81.6-36.8 81.6-81.6v-134.4c0-44.8-36.8-81.6-81.6-81.6z m-134.4 54.4v188.8h-108.8V342.4h108.8z m-270.4 0H432v188.8h-108.8V342.4z m432 161.6c0 14.4-12.8 27.2-27.2 27.2h-81.6V342.4h81.6c14.4 0 27.2 12.8 27.2 27.2v134.4z" fill="#ffffff" p-id="10145"></path><path d="M512 1024c-68.8 0-136-14.4-198.4-40-60.8-25.6-115.2-62.4-163.2-110.4-46.4-46.4-84.8-102.4-110.4-163.2C14.4 648 0 580.8 0 512c0-86.4 24-176 68.8-256 4.8-8 14.4-14.4 24-14.4 1.6 0 4.8 0 8 1.6 9.6 8 16 22.4 8 35.2C67.2 355.2 48 433.6 48 512c0 256 208 464 464 464s464-208 464-464S768 48 512 48c-78.4 0-156.8 20.8-232 60.8-4.8 3.2-9.6 4.8-16 4.8-8 0-12.8-3.2-17.6-9.6-3.2-11.2-3.2-27.2 9.6-35.2C336 24 425.6 0 512 0c68.8 0 136 14.4 198.4 40 60.8 25.6 115.2 62.4 163.2 110.4 46.4 46.4 84.8 102.4 110.4 163.2C1009.6 376 1024 443.2 1024 512s-12.8 136-40 198.4c-25.6 60.8-62.4 115.2-110.4 163.2-46.4 46.4-102.4 84.8-163.2 110.4C648 1009.6 580.8 1024 512 1024z" fill="#ffffff" p-id="10146"></path></svg>